<?xml version="1.0" encoding="UTF-8"?>
<svg version="1.1" xmlns="http://www.w3.org/2000/svg" width="256" height="256">
<path d="M0 0 C1.83202288 1.45491664 3.64574177 2.93327504 5.4375 4.4375 C6.29472656 5.15550781 7.15195313 5.87351562 8.03515625 6.61328125 C33.16667439 28.48197478 48.68743454 58.28959991 52.4375 91.4375 C54.30057889 131.60201462 42.82422434 165.63392865 15.6484375 195.54296875 C8.92452299 202.57431888 1.49876321 208.07281954 -6.5625 213.4375 C-7.75552734 214.26701172 -7.75552734 214.26701172 -8.97265625 215.11328125 C-35.37641352 232.38981378 -71.83986813 237.06852532 -102.4375 230.875 C-121.13273106 226.66090312 -141.13422552 218.2349925 -155.5625 205.4375 C-156.37976563 204.72722656 -157.19703125 204.01695312 -158.0390625 203.28515625 C-160.58192681 201.03806316 -163.07759386 198.74838177 -165.5625 196.4375 C-166.56410156 195.53451172 -166.56410156 195.53451172 -167.5859375 194.61328125 C-183.05008441 180.06435936 -194.07668962 159.79548831 -199.5625 139.4375 C-199.75569824 138.78007812 -199.94889648 138.12265625 -200.14794922 137.4453125 C-206.3458124 115.99311669 -205.75679017 90.82596336 -199.5625 69.4375 C-199.35882813 68.72029785 -199.15515625 68.0030957 -198.9453125 67.26416016 C-190.11472546 37.24970343 -170.69033888 12.36882683 -144.5625 -4.5625 C-143.60085937 -5.19671875 -142.63921875 -5.8309375 -141.6484375 -6.484375 C-99.01849981 -33.02532794 -40.11101373 -29.37708048 0 0 Z M-110.5625 4.4375 C-117.36471743 13.30833698 -122.11823609 23.23427031 -126.5625 33.4375 C-122.11505956 36.40246029 -117.31550623 36.94180242 -112.125 38 C-111.09439453 38.22107422 -110.06378906 38.44214844 -109.00195312 38.66992188 C-80.68288128 44.53209372 -52.26133834 41.6443045 -24.5625 34.4375 C-32.56963157 14.26058898 -43.10991597 -3.74852695 -63.3984375 -13.3203125 C-81.85756338 -20.56722859 -98.92374368 -9.55841804 -110.5625 4.4375 Z M-128.81640625 -3.01953125 C-140.37828519 2.952924 -151.06825098 10.53295589 -160.5625 19.4375 C-157.50095014 22.76743248 -153.91425334 24.25974881 -149.8125 26 C-148.77609375 26.45536133 -148.77609375 26.45536133 -147.71875 26.91992188 C-143.39489845 28.78519242 -139.1164332 30.23941024 -134.5625 31.4375 C-133.96115234 30.07431641 -133.96115234 30.07431641 -133.34765625 28.68359375 C-127.14465001 14.86510739 -120.32577874 2.25166895 -109.5625 -8.5625 C-115.77937445 -10.63479148 -123.16133467 -5.70110781 -128.81640625 -3.01953125 Z M-41.5625 -9.5625 C-40.70950232 -8.41579616 -39.85500133 -7.27021066 -39 -6.125 C-38.17435547 -5.01511719 -38.17435547 -5.01511719 -37.33203125 -3.8828125 C-36.21382161 -2.41655085 -35.06829862 -0.97037993 -33.88671875 0.4453125 C-26.30643805 9.61135307 -21.15658568 20.52654652 -16.5625 31.4375 C-7.19929016 29.27675927 0.98401892 24.85302796 9.4375 20.4375 C-4.3980405 6.55481967 -21.80349141 -6.21351549 -41.5625 -9.5625 Z M-167.5625 27.4375 C-183.70036662 43.97138788 -194.75948485 71.77620486 -194.6015625 94.75390625 C-194.59592285 95.8219751 -194.5902832 96.89004395 -194.58447266 97.99047852 C-194.57722168 98.79799561 -194.5699707 99.6055127 -194.5625 100.4375 C-187.8872966 100.46276945 -181.21210543 100.48033268 -174.53686523 100.49243164 C-172.26407409 100.49747325 -169.9912862 100.50430637 -167.71850586 100.51293945 C-164.45946449 100.52501261 -161.20046583 100.53072987 -157.94140625 100.53515625 C-156.91849991 100.54031754 -155.89559357 100.54547882 -154.84169006 100.55079651 C-153.90079025 100.55087204 -152.95989044 100.55094757 -151.99047852 100.55102539 C-151.15774918 100.553246 -150.32501984 100.55546661 -149.46705627 100.55775452 C-147.55216726 100.64754832 -147.55216726 100.64754832 -146.5625 99.4375 C-146.393637 97.80641968 -146.28586641 96.16895925 -146.203125 94.53125 C-145.27870626 78.79545371 -143.02810605 63.8048749 -139.5625 48.4375 C-139.17672027 46.69929929 -138.79127368 44.96102459 -138.40625 43.22265625 C-138.1278125 41.97355469 -137.849375 40.72445312 -137.5625 39.4375 C-138.2738208 39.14504395 -138.9851416 38.85258789 -139.71801758 38.55126953 C-142.93840237 37.22502759 -146.15671358 35.89382532 -149.375 34.5625 C-151.05432617 33.87220703 -151.05432617 33.87220703 -152.76757812 33.16796875 C-153.84072266 32.72324219 -154.91386719 32.27851562 -156.01953125 31.8203125 C-157.00928955 31.41184082 -157.99904785 31.00336914 -159.01879883 30.58251953 C-161.5625 29.4375 -161.5625 29.4375 -164.5625 27.4375 C-165.5525 27.4375 -166.5425 27.4375 -167.5625 27.4375 Z M7.0625 30.625 C0.35415626 34.09602346 -6.45139689 36.87419539 -13.5625 39.4375 C-13.30855469 40.45585938 -13.05460938 41.47421875 -12.79296875 42.5234375 C-8.06092114 61.81865015 -5.92011097 80.59549349 -4.5625 100.4375 C11.6075 100.4375 27.7775 100.4375 44.4375 100.4375 C41.88446204 76.1836394 35.32350901 45.51069343 16.4375 27.4375 C12.55190597 27.4375 10.49807868 28.81456584 7.0625 30.625 Z M-129.5625 42.4375 C-135.34577 61.57029441 -138.5625 80.39433692 -138.5625 100.4375 C-96.9825 100.4375 -55.4025 100.4375 -12.5625 100.4375 C-13.26747029 84.09311267 -13.26747029 84.09311267 -15.375 68.0625 C-15.54805664 67.06154297 -15.72111328 66.06058594 -15.89941406 65.02929688 C-17.28088319 57.32791763 -19.10356877 49.86661137 -21.5625 42.4375 C-22.19937744 42.57849121 -22.83625488 42.71948242 -23.49243164 42.86474609 C-38.82066258 46.21192842 -53.88949286 48.59699173 -69.5625 49.4375 C-70.64917969 49.49808594 -71.73585938 49.55867188 -72.85546875 49.62109375 C-89.57372561 50.03120972 -106.38109543 47.49237974 -122.64550781 43.86279297 C-124.94448097 43.35275588 -127.25112187 42.88770819 -129.5625 42.4375 Z M-195.5625 108.4375 C-192.40711627 136.83595356 -185.68955006 159.23602126 -167.5625 181.4375 C-161.81480274 179.67564305 -156.37909966 177.26956707 -150.875 174.875 C-148.99656205 174.06011755 -147.11767527 173.24626873 -145.23828125 172.43359375 C-144.41239502 172.07450928 -143.58650879 171.7154248 -142.7355957 171.34545898 C-141.03975731 170.6369068 -139.30609475 170.01869825 -137.5625 169.4375 C-137.81644531 168.40753906 -138.07039063 167.37757813 -138.33203125 166.31640625 C-143.0431673 146.9616805 -145.26147654 128.35316678 -146.5625 108.4375 C-162.7325 108.4375 -178.9025 108.4375 -195.5625 108.4375 Z M-138.5625 108.4375 C-137.9459119 125.09148156 -137.9459119 125.09148156 -135.75 141.375 C-135.57694336 142.3244751 -135.40388672 143.2739502 -135.22558594 144.25219727 C-133.8021819 151.79687983 -131.94111242 159.13718422 -129.5625 166.4375 C-128.60718384 166.22601318 -128.60718384 166.22601318 -127.63256836 166.01025391 C-104.79746406 161.02381693 -82.4863313 158.27181284 -59.125 160.1875 C-58.09528076 160.27185303 -57.06556152 160.35620605 -56.00463867 160.44311523 C-46.6690604 161.28762954 -37.60001264 162.95493781 -28.46337891 165.01220703 C-26.17033352 165.52524133 -23.8689956 165.98914314 -21.5625 166.4375 C-16.1415668 147.3035342 -12.5625 128.38054793 -12.5625 108.4375 C-54.1425 108.4375 -95.7225 108.4375 -138.5625 108.4375 Z M-4.5625 108.4375 C-4.830625 112.35625 -5.09875 116.275 -5.375 120.3125 C-6.62353281 137.11580174 -9.49057874 153.10847566 -13.5625 169.4375 C-12.61890625 169.80101562 -11.6753125 170.16453125 -10.703125 170.5390625 C-9.40568939 171.04544094 -8.10885735 171.55336749 -6.8125 172.0625 C-5.79772583 172.46094116 -5.79772583 172.46094116 -4.76245117 172.86743164 C0.67347051 175.04243871 5.82037961 177.60315555 10.94921875 180.43359375 C13.30799315 181.55799519 13.30799315 181.55799519 15.4921875 181.47265625 C18.51136216 179.86606732 20.05302375 177.23135304 21.875 174.4375 C22.27041992 173.84662598 22.66583984 173.25575195 23.07324219 172.64697266 C26.12085544 168.04299816 28.96330043 163.37718716 31.4375 158.4375 C31.84484375 157.63441406 32.2521875 156.83132812 32.671875 156.00390625 C40.03104374 140.71773168 43.03170722 125.30701339 44.4375 108.4375 C28.2675 108.4375 12.0975 108.4375 -4.5625 108.4375 Z M-126.5625 174.4375 C-121.7486244 186.64259167 -116.1830974 198.39955212 -107.5625 208.4375 C-106.9025 208.4375 -106.2425 208.4375 -105.5625 208.4375 C-105.2325 209.4275 -104.9025 210.4175 -104.5625 211.4375 C-94.8668893 219.86921859 -85.48928129 224.55895969 -72.5625 224.4375 C-60.95221629 223.54146825 -50.60383495 216.27746227 -43.1953125 207.6953125 C-34.97383584 197.64789223 -28.95458685 186.64669556 -24.5625 174.4375 C-58.95115113 165.6597667 -92.20130431 164.86302256 -126.5625 174.4375 Z M-16.5625 177.4375 C-17.30693359 178.96117187 -17.30693359 178.96117187 -18.06640625 180.515625 C-24.22989357 193.04743775 -30.58235892 204.66133071 -39.5625 215.4375 C-40.57120251 216.76426186 -41.57425116 218.09543368 -42.5625 219.4375 C-22.40451163 214.68279021 -4.94864051 203.00748895 9.4375 188.4375 C0.95647969 183.97116386 -7.32811141 180.16046074 -16.5625 177.4375 Z M-135.5625 177.4375 C-147.81682067 181.84812204 -147.81682067 181.84812204 -159.5625 187.4375 C-159.5625 188.4275 -159.5625 189.4175 -159.5625 190.4375 C-156.17382739 193.76174918 -152.33138335 196.55768657 -148.5625 199.4375 C-147.78390625 200.04078125 -147.0053125 200.6440625 -146.203125 201.265625 C-136.02205715 208.77855093 -122.98829629 216.57932464 -110.5625 219.4375 C-109.9025 219.1075 -109.2425 218.7775 -108.5625 218.4375 C-109.13097656 217.84324219 -109.69945312 217.24898437 -110.28515625 216.63671875 C-118.68613217 207.61864276 -124.50925432 197.96851545 -129.81079102 186.91943359 C-131.46425669 183.49412577 -133.13018823 180.37278982 -135.5625 177.4375 Z " fill="#252525" transform="translate(203.5625,23.5625)"/>
</svg>
